# xmcd
#
# Track frame offsets:
#	150
#	22217
#	39178
#	57770
#	73062
#	88319
#	106622
#	120244
#	137253
#	155236
#	171587
#	192733
#	208429
#	222182
#	240833
#	253020
#	270231
#	288817
#	305303
#	321789
#	338972
#
# Disc length: 4764 seconds
#
# Revision: 3
# Processed by: cddbd v1.5.2PL0 Copyright (c) Steve Scherf et al.
# Submitted via: audiograbber 1.83.01
#
DISCID=33129a15
DTITLE=Various Artist - Zoom Pop Chart Picks Vol.009
DYEAR=1900
DGENRE=Blues
TTITLE0=Lana Del Rey - Born To Die
TTITLE1=Little Mix - Cannonball
TTITLE2=Lloyd and Andre 3000 and Lil Wayne - Dedication To My Ex (miss that)
TTITLE3=Alesha Dixon - Do It Our Way (play)
TTITLE4=JLS - Do You Feel What I Feel
TTITLE5=Jessie J - Domino
TTITLE6=Alex Day - Forever Yours
TTITLE7=Leona Lewis - Hurt
TTITLE8=Maverick Sabre - I Need
TTITLE9=Pixie Lott - Kiss The Stars
TTITLE10=Lady Gaga - Marry The Night
TTITLE11=One Direction - One Thing
TTITLE12=Amy Winehouse - Our Day Will Come
TTITLE13=JLS - Proud
TTITLE14=Bruno Mars - Runaway Baby
TTITLE15=Kelly Clarkson - Stronger
TTITLE16=David Guetta and Sia - Titanium
TTITLE17=Cover Drive - Twilight (Duet)
TTITLE18=Cover Drive - Twilight (Solo Female)
TTITLE19=Wanted,The - Warzone
TTITLE20=Jessie J - Who You Are
EXTD=
EXTT0=
EXTT1=
EXTT2=
EXTT3=
EXTT4=
EXTT5=
EXTT6=
EXTT7=
EXTT8=
EXTT9=
EXTT10=
EXTT11=
EXTT12=
EXTT13=
EXTT14=
EXTT15=
EXTT16=
EXTT17=
EXTT18=
EXTT19=
EXTT20=
PLAYORDER=
